<svg width="400" height="400" viewBox="0 0 400 400" fill="none" xmlns="http://www.w3.org/2000/svg">
  <g transform="translate(28, 28)">
  <g id="rocking-shapes">
  <mask id="path-1-inside-1_10439_945" fill="white">
  <path d="M173 171.996C172.764 171.997 172.526 172 172.289 172C77.6898 172 1.00134 94.9929 1.00134 2.05108e-06L173 0L173 171.996Z"/>
  </mask>
  <path d="M173 171.996C172.764 171.997 172.526 172 172.289 172C77.6898 172 1.00134 94.9929 1.00134 2.05108e-06L173 0L173 171.996Z" fill="#E54A2B"/>
  <path d="M173 171.996L173.009 173.996L175 173.988L175 171.996L173 171.996ZM172.289 172L172.289 174L172.289 174L172.289 172ZM1.00134 2.05108e-06L1.00134 -2L-0.998657 -2L-0.998657 1.90009e-06L1.00134 2.05108e-06ZM173 0L175 -2.38499e-08L175 -2L173 -2L173 0ZM173 171.996L172.992 169.996C172.727 169.997 172.527 170 172.289 170L172.289 172L172.289 174C172.525 174 172.8 173.997 173.009 173.996L173 171.996ZM172.289 172L172.289 170C78.8022 170 3.00134 93.8961 3.00134 2.20208e-06L1.00134 2.05108e-06L-0.998657 1.90009e-06C-0.998664 96.0896 76.5774 174 172.289 174L172.289 172ZM1.00134 2.05108e-06L1.00134 2L173 2L173 0L173 -2L1.00134 -2L1.00134 2.05108e-06ZM173 0L171 2.38499e-08L171 171.996L173 171.996L175 171.996L175 -2.38499e-08L173 0Z" fill="#E54A2B" mask="url(#path-1-inside-1_10439_945)"/>
  <mask id="path-3-inside-2_10439_945" fill="white">
  <path d="M172.001 171.996C172.238 171.997 172.475 172 172.712 172C267.312 172 344 94.9929 344 2.05108e-06L172.001 0L172.001 171.996Z"/>
  </mask>
  <path d="M172.001 171.996C172.238 171.997 172.475 172 172.712 172C267.312 172 344 94.9929 344 2.05108e-06L172.001 0L172.001 171.996Z" fill="#7F1414"/>
  <path d="M172.001 171.996L171.993 173.996L170.001 173.988L170.001 171.996L172.001 171.996ZM172.712 172L172.712 174L172.712 174L172.712 172ZM344 2.05108e-06L344 -2L346 -2L346 1.90009e-06L344 2.05108e-06ZM172.001 0L170.001 -2.38499e-08L170.001 -2L172.001 -2L172.001 0ZM172.001 171.996L172.009 169.996C172.275 169.997 172.474 170 172.712 170L172.712 172L172.712 174C172.476 174 172.201 173.997 171.993 173.996L172.001 171.996ZM172.712 172L172.712 170C266.199 170 342 93.8962 342 2.20208e-06L344 2.05108e-06L346 1.90009e-06C346 96.0896 268.424 174 172.712 174L172.712 172ZM344 2.05108e-06L344 2L172.001 2L172.001 0L172.001 -2L344 -2L344 2.05108e-06ZM172.001 0L174.001 2.38499e-08L174.001 171.996L172.001 171.996L170.001 171.996L170.001 -2.38499e-08L172.001 0Z" fill="#7F1414" mask="url(#path-3-inside-2_10439_945)"/>
  <animateTransform attributeName="transform" type="rotate" values="0 172 140; 8 172 140; -8 172 140; 0 172 140" dur="2.5s" repeatCount="indefinite" calcMode="spline" keySplines="0.33 0 0.67 1; 0.33 0 0.67 1; 0.33 0 0.67 1" begin="indefinite"/>
  </g>
  <rect x="342.998" y="173" width="170" height="341.998" transform="rotate(90 342.998 173)" fill="#7F1414" stroke="#7F1414" stroke-width="2"/>
  </g>
</svg>